<svg width="18" height="18" viewBox="0 0 18 18" fill="none" xmlns="http://www.w3.org/2000/svg">
<path d="M15 7.5V6C15 2.68629 12.3137 0 9 0C5.68629 0 3 2.68629 3 6V7.5C2.96277 8.42478 2.54242 9.29237 1.83975 9.89475C1.21515 10.427 0.823938 11.1827 0.75 12C0.75 13.875 3.834 15 9 15C14.166 15 17.25 13.875 17.25 12C17.1761 11.1827 16.7849 10.427 16.1603 9.89475C15.4576 9.29237 15.0372 8.42478 15 7.5Z" fill="white"/>
<path d="M6.85876 16.425C7.15214 17.3609 8.01927 17.9978 9.00001 17.9978C9.98076 17.9978 10.8479 17.3609 11.1413 16.425C10.4708 16.4745 9.75827 16.5 9.00001 16.5C8.24176 16.5 7.52926 16.476 6.85876 16.425Z" fill="white"/>
</svg>
